{"title":"Shaun.the.Sheep.Movie.2015.1080p.BluRay.X264-AMIABLE[rarbg]","uid":11972623,"size":4697204205,"categoryP":"video","categoryS":"hd___movies","magnet":"?xt=urn:btih:dc5f37736683ca599fc92df9881c4806392bab98&amp;dn=Shaun.the.Sheep.Movie.2015.1080p.BluRay.X264-AMIABLE%5Brarbg%5D&amp;tr=udp%3A%2F%2Ftracker.openbittorrent.com%3A80&amp;tr=udp%3A%2F%2Fopen.demonii.com%3A1337&amp;tr=udp%3A%2F%2Ftracker.coppersurfer.tk%3A6969&amp;tr=udp%3A%2F%2Fexodus.desync.com%3A6969","seeders":0,"leechers":1,"uploader":"vickey1992","files":6,"time":1432897561,"description":"__ /    .-.7,--.\n/  . .-''. -,  ,\n'--.-    -;     /\n, /    ,_) /   '-.\n/  (  (     /  .' )            AMIABLE proudly presents:\n'.  --,/   .---' ,-.\n--.  / '-, -' .'              Shaun.the.Sheep.Movie.2015.1080p.BluRay.X264-AMIABLE\n.==,=; -,.;--'\n/ ,'  _;--;                     Date .....: 28th May 2015\n/_...=' you are my                Runtime ..: 01:24:58\n.==,=.              Video ....: 1920x1040 (X264 @ 24fps)\n/    '.             Audio ....: DTS 768k\n,'=...__            Source ...: Retail Blu-Ray\nLang .....: English\nsweetest downfall..             Subs .....: English\n,                    IMDB .....: http://www.imdb.com/title/tt2872750/\nBOM ......: http://www.boxofficemojo.com/movies/?page=intl&amp;country=UK&amp;id=shaunthesheep.htm\nRating ...: 7.5/10   4,579 votes\n,                     Genre ....: Animation  Adventure  Comedy  Family\n\nVideo\nID                                       : 1\nFormat                                   : AVC\nFormat/Info                              : Advanced Video Codec\nFormat profile                           : &lt;a class=&quot;__cf_email__&quot; href=&quot;/cdn-cgi/l/email-protection&quot; data-cfemail=&quot;0e466769664e423a203f&quot;&gt;[email&amp;#160;protected]&lt;/a&gt;&lt;script data-cfhash='f9e31' type=&quot;text/javascript&quot;&gt;\n/* &lt;![CDATA[ */!function(){try{var t=&quot;currentScript&quot;in document?document.currentScript:function(){for(var t=document.getElementsByTagName(&quot;script&quot;),e=t.length;e--;)if(t[e].getAttribute(&quot;data-cfhash&quot;))return t[e]}();if(t&amp;&amp;t.previousSibling){var e,r,n,i,c=t.previousSibling,a=c.getAttribute(&quot;data-cfemail&quot;);if(a){for(e=&quot;&quot;,r=parseInt(a.substr(0,2),16),n=2;a.length-n;n+=2)i=parseInt(a.substr(n,2),16)^r,e+=String.fromCharCode(i);e=document.createTextNode(e),c.parentNode.replaceChild(e,c)}t.parentNode.removeChild(t);}}catch(u){}}()/* ]]&gt; */&lt;/script&gt;\nFormat settings, CABAC                   : Yes\nFormat settings, ReFrames                : 4 frames\nCodec ID                                 : V_MPEG4/ISO/AVC\nDuration                                 : 1h 24mn\nBit rate                                 : 6 595 Kbps\nWidth                                    : 1 920 pixels\nHeight                                   : 1 040 pixels\nDisplay aspect ratio                     : 1.85:1\nFrame rate mode                          : Constant\nFrame rate                               : 24.000 fps\nColor space                              : YUV\nChroma subsampling                       : 4:2:0\nBit depth                                : 8 bits\nScan type                                : Progressive\nBits/(Pixel*Frame)                       : 0.138\nStream size                              : 3.83 GiB (88%)\nWriting library                          : x264 core 146 r2538 121396c\nEncoding settings                        : cabac=1 / ref=4 / deblock=1:-3:-3 / analyse=0x3:0x113 / me=umh / subme=8 / psy=1 / psy_rd=1.00:0.00 / mixed_ref=1 / me_range=16 / chroma_me=1 / trellis=1 / 8x8dct=1 / cqm=0 / deadzone=21,11 / fast_pskip=1 / chroma_qp_offset=-2 / threads=6 / lookahead_threads=1 / sliced_threads=0 / nr=0 / decimate=1 / interlaced=0 / bluray_compat=0 / constrained_intra=0 / bframes=3 / b_pyramid=2 / b_adapt=2 / b_bias=0 / direct=3 / weightb=1 / open_gop=0 / weightp=2 / keyint=240 / keyint_min=24 / scenecut=40 / intra_refresh=0 / rc_lookahead=50 / rc=2pass / mbtree=1 / bitrate=6595 / ratetol=1.0 / qcomp=0.60 / qpmin=0 / qpmax=69 / qpstep=4 / cplxblur=20.0 / qblur=0.5 / ip_ratio=1.40 / aq=1:1.00\nLanguage                                 : English\nDefault                                  : Yes\nForced                                   : No\n\nAudio\nID                                       : 2\nFormat                                   : DTS\nFormat/Info                              : Digital Theater Systems\nMode                                     : 16\nFormat settings, Endianness              : Big\nCodec ID                                 : A_DTS\nDuration                                 : 1h 24mn\nBit rate mode                            : Constant\nBit rate                                 : 768 Kbps\nChannel(s)                               : 6 channels\nChannel positions                        : Front: L C R, Side: L R, LFE\nSampling rate                            : 48.0 KHz\nBit depth                                : 24 bits\nCompression mode                         : Lossy\nStream size                              : 467 MiB (10%)\nLanguage                                 : English\nDefault                                  : Yes\nForced                                   : No\n\nText #1\nID                                       : 3\nFormat                                   : UTF-8\nCodec ID                                 : S_TEXT/UTF8\nCodec ID/Info                            : UTF-8 Plain Text\nTitle                                    : SDH\nLanguage                                 : English\nDefault                                  : No\nForced                                   : No\n\nText #2\nID                                       : 4\nFormat                                   : UTF-8\nCodec ID                                 : S_TEXT/UTF8\nCodec ID/Info                            : UTF-8 Plain Text\nLanguage                                 : English\nDefault                                  : No\nForced                                   : No\n\nMenu\n00:00:00.000                             : en:00:00:00.000\n00:06:24.500                             : en:00:06:24.500\n00:13:52.875                             : en:00:13:52.875\n00:19:32.375                             : en:00:19:32.375\n00:25:57.833                             : en:00:25:57.833\n00:31:51.292                             : en:00:31:51.292\n00:40:06.750                             : en:00:40:06.750\n00:45:35.500                             : en:00:45:35.500\n00:53:03.833                             : en:00:53:03.833\n00:58:45.167                             : en:00:58:45.167\n01:02:58.917                             : en:01:02:58.917\n01:11:40.917                             : en:01:11:40.917","torrent":{"xt":"urn:btih:dc5f37736683ca599fc92df9881c4806392bab98","amp;dn":"Shaun.the.Sheep.Movie.2015.1080p.BluRay.X264-AMIABLE%5Brarbg%5D","amp;tr":["udp%3A%2F%2Ftracker.openbittorrent.com%3A80","udp%3A%2F%2Fopen.demonii.com%3A1337","udp%3A%2F%2Ftracker.coppersurfer.tk%3A6969","udp%3A%2F%2Fexodus.desync.com%3A6969"],"infoHash":"dc5f37736683ca599fc92df9881c4806392bab98","infoHashBuffer":{"type":"Buffer","data":[220,95,55,115,102,131,202,89,159,201,45,249,136,28,72,6,57,43,171,152]},"announce":[],"urlList":[]}}